HIERARCHY
ROOT Hips
{
  OFFSET 1.44925e-005 102.336 -0.101585
  CHANNELS 6 Xposition Yposition Zposition Zrotation Xrotation Yrotation
  JOINT RightUpLeg
  {
    OFFSET -8.9458 -8.66707 0.101652
    CHANNELS 3 Zrotation Xrotation Yrotation
    JOINT RightLeg
    {
      OFFSET 0 -44.4227 1.3727
      CHANNELS 3 Zrotation Xrotation Yrotation
      JOINT RightFoot
      {
        OFFSET 0.253549 -42.0924 -1.46059
        CHANNELS 3 Zrotation Xrotation Yrotation
        JOINT RightToes
        {
          OFFSET 0.04 -4.41509 8.4991
          CHANNELS 3 Zrotation Xrotation Yrotation
          End Site
          {
            OFFSET -0.08 -0.137448 9.77979
          }
        }
      }
    }
  }
  JOINT Spine
  {
    OFFSET 0 11.8905 0
    CHANNELS 3 Zrotation Xrotation Yrotation
    JOINT Spine1
    {
      OFFSET 0 25.6574 0.127663
      CHANNELS 3 Zrotation Xrotation Yrotation
      JOINT HEad
      {
        OFFSET 0 8.73416 0.011341
        CHANNELS 3 Zrotation Xrotation Yrotation
        End Site
        {
          OFFSET -0.29 12.7742 2.51395
        }
      }
      JOINT LeftShoulder1
      {
        OFFSET 8.99 -0.362252 -0.22
        CHANNELS 3 Zrotation Xrotation Yrotation
        JOINT LeftArm
        {
          OFFSET 10.2827 -0.00337999 0.322123
          CHANNELS 3 Zrotation Xrotation Yrotation
          JOINT LeftForeArm
          {
            OFFSET 26.2597 0.099144 -1.42434
            CHANNELS 3 Zrotation Xrotation Yrotation
            JOINT LeftHand
            {
              OFFSET 22.0902 0.085362 1.02216
              CHANNELS 3 Zrotation Xrotation Yrotation
              End Site
              {
                OFFSET 13.419 -0.6 1.50291
              }
            }
          }
        }
      }
      JOINT RightShoulder
      {
        OFFSET -8.99 -0.362252 -0.22
        CHANNELS 3 Zrotation Xrotation Yrotation
        JOINT RightArm
        {
          OFFSET -10.2827 -0.00338 0.322123
          CHANNELS 3 Zrotation Xrotation Yrotation
          JOINT RightForeArm
          {
            OFFSET -26.364 0.099144 -1.42434
            CHANNELS 3 Zrotation Xrotation Yrotation
            JOINT RightHand
            {
              OFFSET -22.0324 0.085362 1.02216
              CHANNELS 3 Zrotation Xrotation Yrotation
              End Site
              {
                OFFSET -13.3284 -0.6 1.50291
              }
            }
          }
        }
      }
    }
  }
  JOINT LeftUpLeg
  {
    OFFSET 8.9458 -8.66707 0.101652
    CHANNELS 3 Zrotation Xrotation Yrotation
    JOINT LeftLeg
    {
      OFFSET 0 -44.4227 1.3727
      CHANNELS 3 Zrotation Xrotation Yrotation
      JOINT LeftFoot
      {
        OFFSET -0.253549 -42.0924 -1.46059
        CHANNELS 3 Zrotation Xrotation Yrotation
        JOINT LeftToes
        {
          OFFSET -0.04 -4.41509 8.4991
          CHANNELS 3 Zrotation Xrotation Yrotation
          End Site
          {
            OFFSET 0.08 -0.047448 9.77979
          }
        }
      }
    }
  }
}
MOTION
Frames:	8
Frame Time:	0.0333333
-2.82809 105.896 34.621 0.866979 5.38371 -179.701 -8.59139 9.59221 -7.96526 1.01553 9.02253 -11.2571 11.7592 -9.38164 -0.00942378 0.0462048 0.000530889 0.662642 0.364634 -8.43481 0.985867 0.459663 10.7112 0.699087 -2.55677 1.8696 -2.63795 -27.0338 1.78888 -1.88721 -45.0681 -20.6277 -19.0299 -12.0921 43.9142 1.69861 4.36097 9.69826 -0.895829 37.6908 4.99349 7.35865 23.8333 -37.1189 -4.76835 4.26679 27.0361 6.3996 -27.0898 8.40068 1.08848 12.6403 5.46733 8.71835 -3.0691 11.6947 4.89613 -12.3674 -7.17434 0.0804612 -1.30779e-009 8.75232e-006 -1.47281e-008 
-2.8214 105.905 34.6119 0.870872 5.39638 -179.743 -8.57398 9.61094 -7.94931 1.01178 9.00587 -11.2542 11.6653 -9.37195 -0.00942352 0.0462048 0.000530889 0.662642 0.342932 -8.40386 0.987406 0.491188 10.6705 0.685696 -2.49697 1.94194 -2.63872 -27.0966 1.78346 -1.86107 -44.9533 -20.5578 -19.0032 -12.1801 43.1585 1.79678 4.27335 9.69472 -1.18525 37.6999 4.99433 7.3635 23.814 -37.0875 -4.77518 4.31274 26.9112 6.3045 -27.0305 8.40874 1.06851 12.6381 5.46901 8.73825 -3.07669 11.7329 4.88179 -12.112 -7.24252 0.072515 -1.30779e-009 8.75232e-006 -1.47281e-008 
-2.81119 105.918 34.5962 0.878355 5.41853 -179.836 -8.55445 9.6368 -7.92808 0.9999 8.97916 -11.2164 11.5322 -9.35248 -0.00942299 0.0462048 0.000530889 0.662642 0.336648 -8.34775 0.998608 0.509883 10.6055 0.686761 -2.41097 2.06061 -2.6458 -27.1862 1.77144 -1.81107 -44.7934 -20.4714 -18.9909 -12.2895 42.4318 1.90509 4.43465 9.6745 -1.55802 37.7061 4.99864 7.37181 23.7932 -37.0893 -4.79588 4.31253 27.0687 6.15422 -26.8458 8.46185 0.882914 12.6318 5.49219 8.76889 -3.09384 11.7804 4.89799 -11.7737 -7.3368 0.0620097 -1.30779e-009 8.75232e-006 -1.47281e-008 
-2.80526 105.924 34.5863 0.878822 5.43998 -179.947 -8.56459 9.63886 -7.92455 0.983128 8.98224 -11.1224 11.4619 -9.34866 -0.00942289 0.0462048 0.000530889 0.662642 0.358697 -8.26096 1.02468 0.480546 10.5088 0.718511 -2.33983 2.18117 -2.66879 -27.2317 1.76301 -1.77881 -44.6983 -20.4379 -19.006 -12.3546 42.2898 1.9731 4.72766 9.65015 -1.77337 37.7087 5.00675 7.38949 23.801 -37.0879 -4.83611 4.28073 27.4263 6.04364 -26.7252 8.51343 0.685804 12.6166 5.55075 8.77738 -3.11128 11.7737 4.98148 -11.6375 -7.37166 0.0582628 -1.30779e-009 8.75232e-006 -1.47281e-008 
-2.80836 105.924 34.5891 0.863861 5.44328 179.959 -8.6015 9.5964 -7.93925 0.970148 9.0266 -11.0088 11.4572 -9.36325 -0.00942328 0.0462048 0.000530889 0.662642 0.407572 -8.12953 1.04762 0.400129 10.3319 0.76409 -2.28291 2.3063 -2.70297 -27.2363 1.76631 -1.78799 -44.6428 -20.434 -19.0093 -12.3923 42.381 2.01485 4.77598 9.64728 -1.76803 37.7131 5.01861 7.41521 23.8334 -37.0062 -4.89074 4.31556 27.4907 5.98953 -26.8165 8.50131 0.716624 12.583 5.60196 8.75812 -3.11847 11.7284 5.09652 -11.689 -7.34437 0.0610134 -1.30779e-009 8.75232e-006 -1.47281e-008 
-2.81973 105.925 34.5999 0.856442 5.41428 179.892 -8.63382 9.51727 -7.95239 0.966391 9.07695 -10.9295 11.4652 -9.37247 -0.00942353 0.0462048 0.000530889 0.662642 0.493251 -7.97977 1.05568 0.272825 10.0813 0.801052 -2.24103 2.44686 -2.7373 -27.2415 1.77603 -1.81627 -44.561 -20.4048 -18.9795 -12.4232 42.3015 2.0084 4.60942 9.66369 -1.57164 37.7291 5.02856 7.4336 23.8466 -36.8666 -4.94545 4.43331 27.1236 5.94223 -26.9426 8.44222 0.944876 12.5548 5.58972 8.73917 -3.1186 11.7141 5.18152 -11.7294 -7.32128 0.0637747 -1.30779e-009 8.75232e-006 -1.47281e-008 
-2.83498 105.927 34.6098 0.859265 5.36702 179.838 -8.65452 9.43269 -7.95682 0.967685 9.10451 -10.8748 11.4681 -9.36991 -0.00942346 0.0462048 0.000530889 0.662642 0.612573 -7.84119 1.05684 0.100893 9.81632 0.833976 -2.22809 2.60035 -2.74984 -27.2429 1.78264 -1.83582 -44.4796 -20.3598 -18.9406 -12.4292 42.1464 1.93575 4.67838 9.66695 -1.34114 37.766 5.03459 7.43774 23.81 -36.7544 -5.00424 4.54943 26.6807 5.90263 -26.8382 8.41588 1.08678 12.5392 5.53671 8.73551 -3.1248 11.7347 5.23969 -11.6874 -7.33383 0.0652884 -1.30779e-009 8.75232e-006 -1.47281e-008 
-2.85126 105.929 34.6166 0.850625 5.33795 179.776 -8.68968 9.37272 -7.97002 0.966939 9.12308 -10.7922 11.4764 -9.37027 -0.00942347 0.0462048 0.000530889 0.662642 0.732487 -7.68863 1.06517 -0.0888988 9.55562 0.880187 -2.23657 2.77198 -2.73487 -27.2111 1.78732 -1.85477 -44.4606 -20.342 -18.919 -12.412 42.1364 1.8652 5.15519 9.64009 -1.31462 37.8084 5.04098 7.44124 23.7507 -36.7118 -5.08244 4.59055 26.4916 5.94097 -26.5213 8.45476 0.996737 12.5114 5.52277 8.72638 -3.13844 11.7259 5.32244 -11.6561 -7.34493 0.0663732 -1.30779e-009 8.75232e-006 -1.47281e-008 
